<?xml version="1.0" encoding="utf-8"?>
<!-- Generator: Adobe Illustrator 23.0.1, SVG Export Plug-In . SVG Version: 6.00 Build 0)  -->
<svg version="1.1" id="Layer_1" xmlns="http://www.w3.org/2000/svg" xmlns:xlink="http://www.w3.org/1999/xlink" x="0px" y="0px"
	 viewBox="0 0 1100 400" style="enable-background:new 0 0 1100 400;" xml:space="preserve">
<style type="text/css">
	.st0{clip-path:url(#SVGID_2_);}
	.st1{fill:#F9F9F8;}
	.st2{fill:#F4F4F2;}
</style>
<g>
	<defs>
		<rect id="SVGID_1_" width="1100" height="400"/>
	</defs>
	<clipPath id="SVGID_2_">
		<use xlink:href="#SVGID_1_"  style="overflow:visible;"/>
	</clipPath>
	<g class="st0">
		<g>
			<path class="st1" d="M417.45-693.85c-31.88,18.42-62.56,38.62-91.89,60.48l564.84,758.8L417.45-693.85z"/>
			<path class="st1" d="M835.47-818.62c-37.08,2.16-73.53,6.42-109.24,12.66L890.4,125.44L835.47-818.62z"/>
			<path class="st1" d="M619.17-780.74c-35.42,10.55-69.93,23.1-103.41,37.52L890.4,125.44L619.17-780.74z"/>
			<path class="st1" d="M1.46-198.17c-12.48,34.29-23.04,69.46-31.53,105.4L890.4,125.44L1.46-198.17z"/>
			<path class="st1" d="M241.34-562.61c-26.69,25.2-51.89,51.92-75.48,80.02L890.4,125.44L241.34-562.61z"/>
			<path class="st1" d="M100.13-394.4c-20.14,30.58-38.53,62.37-55.06,95.23l845.33,424.6L100.13-394.4z"/>
			<path class="st1" d="M1054.71-806.09c-35.81-6.27-72.27-10.52-109.26-12.62L890.4,125.44L1054.71-806.09z"/>
			<path class="st1" d="M1810.75-92.63c-8.48-36.02-18.98-71.2-31.4-105.42L890.4,125.44L1810.75-92.63z"/>
			<path class="st1" d="M-49.03,15.58c-4.16,36.07-6.28,72.71-6.24,109.8l945.67,0.06L-49.03,15.58z"/>
			<path class="st1" d="M1836.07,125.49c-0.02-18.23-0.54-36.56-1.61-54.99c-1.07-18.43-2.68-36.7-4.78-54.8L890.4,125.44
				L1836.07,125.49z"/>
			<path class="st1" d="M1735.81-299.08c-16.54-32.93-34.92-64.73-55.03-95.26L890.4,125.44L1735.81-299.08z"/>
			<path class="st1" d="M1615.05-482.54c-23.62-28.13-48.85-54.82-75.52-79.98L890.4,125.44L1615.05-482.54z"/>
			<path class="st1" d="M1265.14-743.17c-33.53-14.48-68.03-27.07-103.37-37.64L890.4,125.44L1265.14-743.17z"/>
			<path class="st1" d="M1455.29-633.24c-29.38-21.89-60.04-42.11-91.86-60.51L890.4,125.44L1455.29-633.24z"/>
			<path class="st1" d="M1265.04,994.1c33.87-14.59,66.68-31.1,98.31-49.37L890.4,125.44L1265.04,994.1z"/>
			<path class="st1" d="M1455.24,884.24c29.47-21.97,57.58-45.61,84.22-70.76L890.4,125.44L1455.24,884.24z"/>
			<path class="st1" d="M1054.58,1056.83c36.5-6.38,72.22-14.83,107.06-25.21L890.4,125.44L1054.58,1056.83z"/>
			<path class="st1" d="M1614.94,733.47c23.57-28.08,45.53-57.52,65.73-88.2L890.4,125.44L1614.94,733.47z"/>
			<path class="st1" d="M1810.86,343.65c8.37-35.43,14.72-71.59,18.96-108.35L890.4,125.44L1810.86,343.65z"/>
			<path class="st1" d="M1735.73,550.04c16.43-32.66,31-66.37,43.61-101L890.4,125.44L1735.73,550.04z"/>
			<path class="st1" d="M100.02,645.22c20.23,30.72,42.19,60.17,65.73,88.2L890.4,125.44L100.02,645.22z"/>
			<path class="st1" d="M1.46,448.93c12.6,34.71,27.16,68.42,43.54,101.03L890.4,125.44L1.46,448.93z"/>
			<path class="st1" d="M-48.88,235.17c4.27,36.85,10.62,73,18.93,108.34L890.4,125.44L-48.88,235.17z"/>
			<path class="st1" d="M835.36,1069.59c36.2,2.06,72.9,2.07,109.98-0.09L890.4,125.44L835.36,1069.59z"/>
			<path class="st1" d="M619.03,1031.69c34.92,10.44,70.65,18.9,107.06,25.28L890.4,125.44L619.03,1031.69z"/>
			<path class="st1" d="M417.38,944.63c31.67,18.31,64.48,34.82,98.28,49.42L890.4,125.44L417.38,944.63z"/>
			<path class="st1" d="M241.27,813.4c26.68,25.17,54.81,48.79,84.25,70.72L890.4,125.44L241.27,813.4z"/>
		</g>
		<g>
			<path class="st2" d="M515.76-743.22c-33.87,14.59-66.68,31.1-98.31,49.37L890.4,125.44L515.76-743.22z"/>
			<path class="st2" d="M945.45-818.71c-36.2-2.06-72.9-2.07-109.98,0.09l54.93,944.06L945.45-818.71z"/>
			<path class="st2" d="M726.23-805.96c-36.5,6.38-72.22,14.83-107.06,25.21L890.4,125.44L726.23-805.96z"/>
			<path class="st2" d="M325.56-633.36c-29.47,21.97-57.58,45.61-84.22,70.76L890.4,125.44L325.56-633.36z"/>
			<path class="st2" d="M45.07-299.16c-16.43,32.66-31,66.37-43.61,101L890.4,125.44L45.07-299.16z"/>
			<path class="st2" d="M-30.06-92.77c-8.37,35.43-14.72,71.59-18.96,108.35L890.4,125.44L-30.06-92.77z"/>
			<path class="st2" d="M165.86-482.59c-23.57,28.08-45.53,57.52-65.73,88.2L890.4,125.44L165.86-482.59z"/>
			<path class="st2" d="M1779.35-198.05c-12.6-34.71-27.16-68.42-43.54-101.03L890.4,125.44L1779.35-198.05z"/>
			<path class="st2" d="M1680.78-394.34c-20.23-30.72-42.19-60.17-65.73-88.2L890.4,125.44L1680.78-394.34z"/>
			<path class="st2" d="M1829.68,15.71c-4.27-36.85-10.62-73-18.93-108.34L890.4,125.44L1829.68,15.71z"/>
			<path class="st2" d="M1161.77-780.81c-34.92-10.44-70.65-18.9-107.06-25.28L890.4,125.44L1161.77-780.81z"/>
			<path class="st2" d="M1363.43-693.75c-31.67-18.31-64.48-34.82-98.28-49.42L890.4,125.44L1363.43-693.75z"/>
			<path class="st2" d="M1539.53-562.52c-26.68-25.17-54.81-48.79-84.25-70.72L890.4,125.44L1539.53-562.52z"/>
			<path class="st2" d="M1363.35,944.72c31.88-18.42,62.56-38.62,91.89-60.48L890.4,125.44L1363.35,944.72z"/>
			<path class="st2" d="M1539.47,813.49c26.69-25.2,51.89-51.92,75.48-80.02L890.4,125.44L1539.47,813.49z"/>
			<path class="st2" d="M1161.64,1031.62c35.42-10.55,69.93-23.1,103.41-37.52L890.4,125.44L1161.64,1031.62z"/>
			<path class="st2" d="M1680.67,645.27c20.14-30.58,38.53-62.37,55.06-95.23L890.4,125.44L1680.67,645.27z"/>
			<path class="st2" d="M890.4,125.44l939.43,109.86c4.16-36.07,6.28-72.71,6.24-109.8L890.4,125.44z"/>
			<path class="st2" d="M1779.34,449.04c12.48-34.29,23.04-69.46,31.53-105.4L890.4,125.44L1779.34,449.04z"/>
			<path class="st2" d="M945.33,1069.5c37.08-2.16,73.53-6.42,109.24-12.66L890.4,125.44L945.33,1069.5z"/>
			<path class="st2" d="M-29.95,343.51c8.48,36.02,18.98,71.2,31.4,105.42L890.4,125.44L-29.95,343.51z"/>
			<path class="st2" d="M44.99,549.96c16.54,32.93,34.92,64.73,55.03,95.26L890.4,125.44L44.99,549.96z"/>
			<path class="st2" d="M165.75,733.42c23.62,28.13,48.85,54.82,75.52,79.98L890.4,125.44L165.75,733.42z"/>
			<path class="st2" d="M-55.27,125.38c0.02,18.23,0.54,36.56,1.61,54.99c1.07,18.43,2.68,36.7,4.78,54.8L890.4,125.44
				L-55.27,125.38z"/>
			<path class="st2" d="M726.09,1056.96c35.81,6.27,72.27,10.52,109.26,12.62l55.05-944.15L726.09,1056.96z"/>
			<path class="st2" d="M515.66,994.05c33.53,14.48,68.03,27.07,103.37,37.64L890.4,125.44L515.66,994.05z"/>
			<path class="st2" d="M325.51,884.12c29.38,21.89,60.04,42.11,91.86,60.51L890.4,125.44L325.51,884.12z"/>
		</g>
	</g>
</g>
<g>
</g>
<g>
</g>
<g>
</g>
<g>
</g>
<g>
</g>
<g>
</g>
</svg>
